<svg xmlns="http://www.w3.org/2000/svg" xmlns:xlink="http://www.w3.org/1999/xlink" width="500" zoomAndPan="magnify" viewBox="0 0 375 374.999991" height="500" preserveAspectRatio="xMidYMid meet" version="1.0"><defs><clipPath id="3499de4c1d"><path d="M 54.925781 123 L 320.425781 123 L 320.425781 253.964844 L 54.925781 253.964844 Z M 54.925781 123 " clip-rule="nonzero"/></clipPath></defs><g clip-path="url(#3499de4c1d)"><path fill="#e3342f" d="M 109.710938 123.621094 C 109.273438 124.179688 109.234375 124.46875 108.859375 129.300781 C 108.507812 133.929688 108.214844 137.558594 107.613281 145.109375 C 107.511719 146.519531 107.324219 148.925781 107.199219 150.460938 C 107.074219 151.996094 106.890625 154.421875 106.785156 155.851562 C 106.308594 161.847656 105.8125 168.109375 105.542969 171.617188 C 105.417969 173.152344 105.230469 175.578125 105.125 177.007812 C 104.753906 181.59375 104.523438 184.519531 104.296875 187.378906 C 104.027344 190.886719 103.527344 197.148438 103.050781 203.144531 C 102.949219 204.574219 102.761719 207.003906 102.636719 208.539062 C 102.511719 210.074219 102.324219 212.5 102.222656 213.929688 C 101.847656 218.515625 101.621094 221.441406 101.394531 224.300781 C 101.269531 225.835938 101.082031 228.222656 100.976562 229.589844 C 100.875 230.960938 100.707031 232.910156 100.625 233.945312 C 100.5 235.773438 100.480469 235.792969 100.335938 234.777344 C 100.253906 234.195312 100.085938 233.136719 99.980469 232.390625 C 99.859375 231.644531 99.566406 229.695312 99.320312 228.035156 C 99.070312 226.375 98.800781 224.507812 98.695312 223.886719 C 98.59375 223.265625 98.324219 221.398438 98.074219 219.738281 C 97.824219 218.078125 97.554688 216.210938 97.453125 215.589844 C 97.347656 214.96875 97.078125 213.101562 96.828125 211.441406 C 96.582031 209.78125 96.3125 207.914062 96.207031 207.292969 C 95.875 205.117188 95.542969 203.042969 95.355469 201.734375 C 95.253906 201.027344 95.085938 199.867188 94.984375 199.140625 C 94.878906 198.4375 94.671875 197.148438 94.546875 196.300781 C 94.421875 195.449219 94.214844 194.183594 94.132812 193.5 C 93.925781 192.070312 93.160156 186.988281 92.890625 185.304688 C 92.785156 184.683594 92.515625 182.816406 92.265625 181.15625 C 92.019531 179.5 91.75 177.632812 91.644531 177.007812 C 91.539062 176.386719 91.3125 174.832031 91.125 173.585938 C 90.691406 170.640625 90.648438 170.496094 90.171875 169.976562 C 89.652344 169.4375 88.347656 169.398438 87.722656 169.894531 C 87.433594 170.125 87.121094 170.828125 86.875 171.71875 C 85.609375 176.53125 83.304688 185.367188 82.789062 187.484375 L 82.476562 188.730469 L 68.703125 188.667969 L 54.933594 188.605469 L 54.933594 192.359375 L 69.824219 192.359375 C 77.996094 192.359375 84.800781 192.277344 84.902344 192.191406 C 85.566406 191.714844 85.464844 192.046875 88.140625 181.699219 C 88.261719 181.261719 88.386719 180.949219 88.449219 180.992188 C 88.492188 181.054688 88.636719 181.78125 88.742188 182.628906 C 88.84375 183.480469 89.03125 184.765625 89.15625 185.515625 C 89.28125 186.261719 89.464844 187.503906 89.570312 188.3125 C 90.066406 191.652344 90.316406 193.332031 90.816406 196.507812 C 90.917969 197.128906 91.1875 198.996094 91.4375 200.65625 C 91.6875 202.316406 91.957031 204.183594 92.058594 204.804688 C 92.164062 205.425781 92.433594 207.292969 92.679688 208.953125 C 92.929688 210.613281 93.199219 212.480469 93.304688 213.101562 C 93.40625 213.722656 93.675781 215.589844 93.925781 217.25 C 94.175781 218.910156 94.445312 220.777344 94.546875 221.398438 C 94.878906 223.574219 95.210938 225.648438 95.398438 226.9375 C 95.503906 227.664062 95.667969 228.824219 95.773438 229.527344 C 95.957031 230.835938 96.289062 232.910156 96.621094 235.085938 C 96.726562 235.710938 96.996094 237.578125 97.246094 239.234375 C 97.492188 240.894531 97.761719 242.761719 97.867188 243.382812 C 98.03125 244.402344 98.613281 248.320312 99.109375 251.785156 C 99.257812 252.738281 99.421875 253.132812 99.835938 253.507812 C 100.523438 254.085938 101.578125 254.109375 102.265625 253.546875 C 102.84375 253.113281 102.949219 252.40625 103.46875 245.5625 C 103.589844 243.964844 103.777344 241.496094 103.882812 240.066406 C 104.007812 238.632812 104.191406 236.3125 104.296875 234.878906 C 104.398438 233.449219 104.585938 231.125 104.710938 229.695312 C 104.816406 228.261719 105 225.835938 105.125 224.300781 C 105.25 222.765625 105.4375 220.339844 105.542969 218.910156 C 105.664062 217.476562 105.851562 215.195312 105.957031 213.828125 C 106.308594 209.265625 106.578125 205.757812 106.785156 203.25 C 106.890625 201.878906 107.074219 199.453125 107.199219 197.855469 C 107.324219 196.257812 107.511719 193.914062 107.613281 192.671875 C 107.71875 191.40625 107.90625 189.039062 108.03125 187.378906 C 108.15625 185.722656 108.339844 183.335938 108.445312 182.089844 C 108.546875 180.828125 108.734375 178.503906 108.859375 176.90625 C 108.984375 175.308594 109.171875 172.839844 109.296875 171.410156 C 109.605469 167.34375 109.855469 164.085938 110.105469 160.933594 C 110.332031 157.90625 110.539062 155.542969 110.976562 150.460938 C 111.265625 147.078125 111.285156 147.121094 111.761719 152.636719 C 111.886719 154.109375 112.074219 156.265625 112.179688 157.410156 C 112.46875 160.5 112.964844 165.828125 113.421875 171.035156 C 113.691406 173.878906 113.984375 177.195312 114.253906 180.164062 C 114.375 181.449219 114.5625 183.480469 114.667969 184.683594 C 114.917969 187.339844 115.226562 190.925781 115.496094 193.707031 C 115.601562 194.847656 115.789062 196.984375 115.910156 198.476562 C 116.472656 205.011719 116.574219 205.28125 118.191406 205.261719 C 119.542969 205.238281 120.183594 204.453125 122.589844 199.929688 C 123.730469 197.773438 125.101562 195.199219 125.640625 194.226562 L 126.59375 192.460938 L 153.621094 192.402344 L 180.625 192.359375 L 180.625 188.6875 L 179.734375 187.878906 C 178.261719 186.550781 176.601562 185.160156 174.589844 183.585938 C 172.410156 181.863281 172.515625 181.945312 167.660156 178.253906 C 161.855469 173.835938 161.292969 173.402344 159.882812 172.238281 C 149.574219 163.777344 145.800781 158.175781 144.535156 149.484375 C 143.976562 145.585938 144.636719 141.664062 146.421875 138.222656 C 148.101562 134.964844 151.007812 131.976562 154.492188 129.925781 C 158.785156 127.375 164.921875 126.027344 169.796875 126.585938 C 172.140625 126.835938 175.625 127.582031 175.9375 127.871094 C 176.0625 127.976562 176.269531 128.058594 176.433594 128.058594 C 176.953125 128.058594 180.25 129.738281 181.847656 130.816406 C 184.730469 132.746094 186.824219 135.152344 188.921875 138.886719 C 189.542969 140.003906 190.144531 140.875 190.25 140.855469 C 190.332031 140.816406 190.972656 139.820312 191.679688 138.636719 C 193.734375 135.046875 195.703125 132.808594 198.503906 130.898438 C 206.054688 125.714844 216.214844 125.03125 224.472656 129.136719 C 230.402344 132.101562 234.488281 137.058594 235.691406 142.785156 C 236.085938 144.671875 236.085938 148.632812 235.714844 150.667969 C 234.035156 159.359375 229.074219 165.414062 214.640625 176.347656 C 209.871094 179.957031 204.683594 184.082031 201.304688 186.945312 L 199.5 188.5 L 199.5 192.359375 L 225.800781 192.402344 L 252.078125 192.460938 L 253.03125 194.226562 C 253.570312 195.199219 254.941406 197.773438 256.082031 199.929688 C 258.488281 204.453125 259.128906 205.238281 260.476562 205.261719 C 262.097656 205.28125 262.199219 205.011719 262.761719 198.476562 C 262.882812 196.984375 263.070312 194.847656 263.175781 193.707031 C 263.382812 191.589844 263.652344 188.667969 264.003906 184.726562 C 264.109375 183.503906 264.292969 181.449219 264.417969 180.164062 C 264.523438 178.898438 264.730469 176.800781 264.835938 175.558594 C 264.957031 174.292969 265.144531 172.238281 265.25 170.996094 C 265.375 169.730469 265.539062 167.71875 265.664062 166.472656 C 265.933594 163.464844 266.265625 159.917969 266.492188 157.410156 C 266.597656 156.265625 266.785156 154.109375 266.90625 152.636719 C 267.386719 147.121094 267.40625 147.078125 267.695312 150.460938 C 268.132812 155.542969 268.339844 157.90625 268.566406 160.933594 C 268.691406 162.53125 268.878906 165 269.003906 166.429688 C 269.3125 170.496094 269.5625 173.753906 269.8125 176.90625 C 269.9375 178.503906 270.121094 180.828125 270.226562 182.089844 C 270.332031 183.335938 270.515625 185.722656 270.640625 187.378906 C 270.765625 189.039062 270.953125 191.40625 271.054688 192.671875 C 271.160156 193.914062 271.347656 196.257812 271.472656 197.855469 C 271.59375 199.453125 271.78125 201.878906 271.886719 203.25 C 271.988281 204.617188 272.175781 207.003906 272.300781 208.539062 C 272.738281 214.074219 272.921875 216.460938 273.128906 218.949219 C 273.234375 220.359375 273.421875 222.765625 273.546875 224.300781 C 273.792969 227.539062 274.0625 230.898438 274.375 234.878906 C 274.8125 240.417969 274.996094 242.699219 275.203125 245.5625 C 275.722656 252.40625 275.828125 253.113281 276.40625 253.546875 C 277.09375 254.109375 278.148438 254.085938 278.835938 253.484375 C 279.25 253.132812 279.414062 252.738281 279.558594 251.785156 C 280.058594 248.320312 280.640625 244.402344 280.804688 243.382812 C 280.910156 242.761719 281.179688 240.894531 281.425781 239.234375 C 281.675781 237.578125 281.945312 235.710938 282.050781 235.085938 C 282.382812 232.910156 282.714844 230.835938 282.898438 229.527344 C 283.003906 228.824219 283.167969 227.664062 283.273438 226.9375 C 283.460938 225.648438 283.792969 223.574219 284.125 221.398438 C 284.226562 220.777344 284.496094 218.910156 284.746094 217.25 C 284.996094 215.589844 285.265625 213.722656 285.367188 213.101562 C 285.472656 212.480469 285.742188 210.613281 285.988281 208.953125 C 286.238281 207.292969 286.507812 205.425781 286.613281 204.804688 C 286.714844 204.183594 286.984375 202.316406 287.234375 200.65625 C 287.484375 198.996094 287.753906 197.128906 287.855469 196.507812 C 288.355469 193.332031 288.601562 191.652344 289.101562 188.3125 C 289.203125 187.503906 289.390625 186.261719 289.515625 185.515625 C 289.640625 184.765625 289.828125 183.480469 289.929688 182.628906 C 290.035156 181.78125 290.179688 181.054688 290.222656 180.992188 C 290.285156 180.949219 290.40625 181.261719 290.53125 181.699219 C 293.207031 192.046875 293.105469 191.714844 293.769531 192.191406 C 293.890625 192.277344 299.929688 192.359375 307.207031 192.359375 L 320.421875 192.359375 L 320.421875 188.605469 L 296.195312 188.730469 L 295.882812 187.484375 C 295.363281 185.367188 293.0625 176.53125 291.796875 171.71875 C 291.546875 170.828125 291.238281 170.125 290.945312 169.894531 C 290.324219 169.398438 289.019531 169.4375 288.5 169.976562 C 288.023438 170.496094 287.980469 170.640625 287.546875 173.585938 C 287.359375 174.832031 287.132812 176.386719 287.027344 177.007812 C 286.921875 177.632812 286.652344 179.5 286.40625 181.15625 C 286.15625 182.816406 285.886719 184.683594 285.78125 185.304688 C 285.511719 186.988281 284.746094 192.070312 284.539062 193.5 C 284.457031 194.183594 284.246094 195.449219 284.125 196.300781 C 284 197.148438 283.792969 198.457031 283.6875 199.203125 C 283.230469 202.316406 282.941406 204.183594 282.464844 207.292969 C 282.359375 207.914062 282.089844 209.78125 281.84375 211.441406 C 281.59375 213.101562 281.324219 214.96875 281.21875 215.589844 C 281.117188 216.210938 280.847656 218.078125 280.597656 219.738281 C 280.347656 221.398438 280.078125 223.265625 279.976562 223.886719 C 279.871094 224.507812 279.601562 226.375 279.351562 228.035156 C 279.105469 229.695312 278.8125 231.644531 278.6875 232.390625 C 278.585938 233.136719 278.417969 234.195312 278.335938 234.777344 C 278.191406 235.792969 278.171875 235.773438 278.046875 233.945312 C 277.964844 232.910156 277.796875 230.960938 277.695312 229.589844 C 277.589844 228.222656 277.402344 225.835938 277.277344 224.300781 C 277.15625 222.765625 276.96875 220.359375 276.863281 218.949219 C 276.738281 217.5625 276.574219 215.277344 276.449219 213.867188 C 276.34375 212.480469 276.160156 210.074219 276.035156 208.539062 C 275.785156 205.300781 275.515625 201.941406 275.203125 197.960938 C 274.894531 193.976562 274.625 190.617188 274.375 187.378906 C 274.25 185.847656 274.0625 183.441406 273.960938 182.03125 C 273.835938 180.640625 273.667969 178.359375 273.546875 176.949219 C 273.441406 175.558594 273.253906 173.152344 273.128906 171.617188 C 272.859375 168.109375 272.363281 161.847656 271.886719 155.851562 C 271.78125 154.421875 271.59375 151.996094 271.472656 150.460938 C 271.265625 147.722656 271.078125 145.355469 270.640625 140.089844 C 270.371094 136.625 270.082031 132.953125 269.8125 129.300781 C 269.4375 124.46875 269.398438 124.179688 268.960938 123.621094 C 268.402344 122.894531 266.929688 122.851562 266.304688 123.515625 C 265.789062 124.074219 265.707031 124.449219 265.457031 127.539062 C 265.332031 128.910156 265.144531 131.023438 265.042969 132.25 C 264.917969 133.492188 264.75 135.503906 264.625 136.769531 C 264.523438 138.015625 264.335938 140.066406 264.210938 141.332031 C 264.109375 142.578125 263.921875 144.632812 263.796875 145.894531 C 263.691406 147.140625 263.507812 149.195312 263.382812 150.460938 C 263.277344 151.703125 263.089844 153.757812 262.96875 155.023438 C 262.863281 156.289062 262.675781 158.320312 262.550781 159.585938 C 262.449219 160.832031 262.261719 162.882812 262.136719 164.148438 C 262.035156 165.414062 261.847656 167.449219 261.722656 168.710938 C 261.617188 169.976562 261.433594 172.03125 261.308594 173.277344 C 261.203125 174.542969 261.019531 176.59375 260.894531 177.839844 C 260.789062 179.105469 260.601562 181.15625 260.476562 182.402344 C 260.023438 187.339844 259.855469 189.246094 259.628906 191.632812 C 259.503906 193 259.335938 194.910156 259.273438 195.886719 L 259.128906 197.648438 L 258.175781 195.886719 C 257.65625 194.910156 256.722656 193.1875 256.144531 192.046875 C 255.542969 190.90625 254.898438 189.746094 254.671875 189.453125 L 254.277344 188.9375 L 229.636719 188.832031 L 204.996094 188.730469 L 207.171875 186.945312 C 208.375 185.96875 210.511719 184.25 211.945312 183.148438 C 213.375 182.050781 214.679688 181.035156 214.847656 180.886719 C 215.011719 180.742188 216.320312 179.746094 217.75 178.667969 C 219.183594 177.589844 220.386719 176.65625 220.449219 176.59375 C 220.511719 176.53125 220.964844 176.160156 221.484375 175.765625 C 222.003906 175.371094 222.460938 174.996094 222.523438 174.933594 C 222.585938 174.875 223.0625 174.480469 223.601562 174.042969 C 224.140625 173.609375 224.699219 173.152344 224.84375 173.007812 C 224.988281 172.859375 225.714844 172.238281 226.460938 171.617188 C 228.496094 169.894531 232.167969 166.121094 233.617188 164.253906 C 238.015625 158.613281 240.152344 152.886719 240.152344 146.726562 C 240.152344 140.605469 237.933594 135.464844 233.328125 130.960938 C 229.117188 126.835938 224.242188 124.40625 217.875 123.289062 C 216.03125 122.976562 209.664062 123.019531 207.691406 123.390625 C 201.304688 124.53125 196.324219 127.125 192.074219 131.523438 C 191.015625 132.621094 190.082031 133.429688 189.980469 133.328125 C 189.894531 133.222656 189.378906 132.601562 188.839844 131.957031 C 186.371094 129.011719 181.847656 126.085938 177.410156 124.574219 C 174.070312 123.433594 171.707031 123.078125 167.433594 123.078125 C 163.761719 123.078125 162.910156 123.164062 160.132812 123.828125 C 154.035156 125.277344 148.332031 128.867188 144.929688 133.347656 C 142.917969 136.023438 142.003906 137.765625 141.089844 140.816406 C 140.550781 142.578125 140.511719 142.910156 140.511719 146.726562 C 140.511719 151.082031 140.675781 152.347656 141.753906 155.542969 C 142.503906 157.800781 144.410156 161.578125 145.507812 163.007812 C 145.613281 163.113281 145.839844 163.464844 146.027344 163.753906 C 146.214844 164.046875 146.503906 164.417969 146.648438 164.585938 C 146.796875 164.75 147.292969 165.332031 147.75 165.914062 C 148.828125 167.238281 152.582031 170.996094 154.28125 172.445312 C 155.03125 173.070312 155.671875 173.628906 155.734375 173.691406 C 155.796875 173.753906 156.585938 174.394531 157.496094 175.121094 C 158.410156 175.828125 159.34375 176.59375 159.59375 176.800781 C 159.839844 176.988281 161.5625 178.316406 163.429688 179.707031 C 165.296875 181.117188 166.871094 182.320312 166.933594 182.402344 C 166.996094 182.464844 167.371094 182.753906 167.765625 183.023438 C 168.160156 183.292969 168.53125 183.585938 168.59375 183.648438 C 168.65625 183.710938 169.488281 184.375 170.460938 185.097656 C 171.4375 185.824219 172.328125 186.53125 172.453125 186.65625 C 172.578125 186.757812 173.15625 187.234375 173.738281 187.691406 C 174.320312 188.148438 174.796875 188.582031 174.816406 188.667969 C 174.816406 188.769531 163.511719 188.832031 149.71875 188.832031 L 124.601562 188.832031 L 124.144531 189.332031 C 123.875 189.621094 123.171875 190.804688 122.570312 191.984375 C 121.949219 193.167969 121.015625 194.910156 120.496094 195.886719 L 119.542969 197.648438 L 119.394531 195.886719 C 119.332031 194.910156 119.167969 193 119.042969 191.632812 C 118.816406 189.246094 118.648438 187.339844 118.191406 182.402344 C 118.089844 181.15625 117.902344 179.105469 117.777344 177.839844 C 117.675781 176.59375 117.488281 174.519531 117.363281 173.277344 C 117.261719 172.011719 117.074219 169.957031 116.949219 168.710938 C 116.84375 167.449219 116.660156 165.394531 116.535156 164.148438 C 116.429688 162.882812 116.242188 160.832031 116.117188 159.585938 C 116.015625 158.320312 115.828125 156.265625 115.703125 155.023438 C 115.601562 153.757812 115.414062 151.703125 115.289062 150.460938 C 115.1875 149.195312 115 147.140625 114.875 145.894531 C 114.769531 144.632812 114.585938 142.578125 114.460938 141.332031 C 114.355469 140.066406 114.167969 138.015625 114.046875 136.769531 C 113.941406 135.503906 113.753906 133.492188 113.628906 132.25 C 113.527344 131.023438 113.339844 128.910156 113.214844 127.539062 C 112.964844 124.449219 112.882812 124.074219 112.363281 123.515625 C 111.742188 122.851562 110.269531 122.894531 109.710938 123.621094 Z M 109.710938 123.621094 " fill-opacity="1" fill-rule="nonzero"/></g></svg>