<svg xmlns="http://www.w3.org/2000/svg" xmlns:xlink="http://www.w3.org/1999/xlink" width="500" zoomAndPan="magnify" viewBox="0 0 375 374.999991" height="500" preserveAspectRatio="xMidYMid meet" version="1.0"><defs><clipPath id="3e3093f53b"><path d="M 54.863281 54.53125 L 320.363281 54.53125 L 320.363281 320.78125 L 54.863281 320.78125 Z M 54.863281 54.53125 " clip-rule="nonzero"/></clipPath></defs><g clip-path="url(#3e3093f53b)"><path fill="#c2d0ef" d="M 289.949219 255.445312 C 276.105469 245.292969 248.234375 234.398438 238.695312 230.820312 C 238.640625 229.898438 238.449219 228.976562 238.117188 228.082031 C 237.234375 225.707031 235.480469 223.828125 233.175781 222.785156 L 220.796875 217.183594 C 219.289062 216.503906 217.65625 216.246094 216.050781 216.394531 L 216.050781 212.953125 C 228.648438 205.136719 237.816406 192.289062 240.726562 177.238281 C 251.640625 175.683594 260.0625 166.273438 260.0625 154.933594 C 260.0625 149.523438 258.164062 144.40625 254.6875 140.335938 L 254.6875 101.574219 C 254.6875 75.664062 233.617188 54.585938 207.714844 54.585938 L 171.386719 54.585938 C 154.625 54.585938 140.761719 67.246094 138.863281 83.511719 C 128.457031 85.386719 120.539062 94.507812 120.539062 105.449219 L 120.539062 140.335938 C 117.0625 144.40625 115.164062 149.523438 115.164062 154.933594 C 115.164062 166.273438 123.585938 175.683594 134.5 177.238281 C 137.414062 192.289062 146.578125 205.132812 159.175781 212.953125 L 159.175781 216.394531 C 157.570312 216.246094 155.9375 216.503906 154.429688 217.183594 L 142.050781 222.785156 C 139.746094 223.828125 137.988281 225.710938 137.109375 228.082031 C 136.777344 228.976562 136.585938 229.898438 136.53125 230.820312 C 126.992188 234.398438 99.117188 245.292969 85.277344 255.445312 C 65.949219 269.625 54.863281 291.6875 54.863281 315.984375 C 54.863281 318.292969 56.734375 320.167969 59.042969 320.167969 C 61.355469 320.167969 63.226562 318.292969 63.226562 315.984375 C 63.226562 286.410156 80.140625 269.585938 90.222656 262.191406 C 96.714844 257.429688 106.867188 252.355469 116.515625 248.054688 L 116.515625 264.476562 C 106.375 266.4375 98.691406 275.378906 98.691406 286.085938 L 98.691406 309.679688 C 98.691406 315.460938 103.394531 320.167969 109.175781 320.167969 C 111.484375 320.167969 113.355469 318.292969 113.355469 315.984375 C 113.355469 313.675781 111.484375 311.800781 109.175781 311.800781 C 108.003906 311.800781 107.054688 310.851562 107.054688 309.679688 L 107.054688 286.085938 C 107.054688 278.558594 113.175781 272.4375 120.699219 272.4375 C 128.222656 272.4375 134.339844 278.558594 134.339844 286.085938 L 134.339844 309.679688 C 134.339844 310.851562 133.390625 311.800781 132.222656 311.800781 C 129.910156 311.800781 128.039062 313.675781 128.039062 315.984375 C 128.039062 318.292969 129.910156 320.167969 132.222656 320.167969 C 138 320.167969 142.703125 315.460938 142.703125 309.679688 L 142.703125 286.085938 C 142.703125 275.378906 135.019531 266.4375 124.878906 264.476562 L 124.878906 244.449219 C 130.714844 242.011719 135.8125 240.039062 139.023438 238.824219 L 141.179688 243.464844 L 134.253906 249.28125 C 132.515625 250.742188 132.261719 253.320312 133.675781 255.09375 L 184.34375 318.589844 C 184.347656 318.597656 184.355469 318.605469 184.363281 318.613281 C 186.53125 320.683594 188.695312 320.683594 190.863281 318.613281 C 190.867188 318.605469 190.875 318.601562 190.882812 318.59375 L 238.371094 259.078125 C 241.582031 255.054688 241.007812 249.3125 237.066406 246 L 234.046875 243.464844 L 236.203125 238.824219 C 239.414062 240.039062 244.511719 242.011719 250.347656 244.449219 L 250.347656 286.382812 C 242.910156 288.257812 237.382812 295.003906 237.382812 303.015625 C 237.382812 312.472656 245.074219 320.167969 254.527344 320.167969 C 263.980469 320.167969 271.671875 312.472656 271.671875 303.015625 C 271.671875 295.003906 266.148438 288.257812 258.710938 286.382812 L 258.710938 248.054688 C 268.359375 252.355469 278.511719 257.429688 285.003906 262.191406 C 295.085938 269.585938 312 286.410156 312 315.984375 C 312 318.292969 313.875 320.167969 316.183594 320.167969 C 318.492188 320.167969 320.363281 318.292969 320.363281 315.984375 C 320.363281 291.6875 309.277344 269.625 289.949219 255.445312 Z M 247.554688 144.917969 C 250.226562 147.59375 251.699219 151.152344 251.699219 154.933594 C 251.699219 161.292969 247.492188 166.683594 241.714844 168.472656 L 241.714844 141.390625 C 243.894531 142.058594 245.890625 143.253906 247.550781 144.914062 C 247.550781 144.914062 247.550781 144.917969 247.554688 144.917969 Z M 147 87.34375 C 147 73.890625 157.941406 62.949219 171.386719 62.949219 L 207.714844 62.949219 C 229.003906 62.949219 246.328125 80.277344 246.328125 101.574219 L 246.328125 134.179688 C 243.582031 133.015625 240.605469 132.402344 237.535156 132.402344 C 197.105469 132.402344 178.234375 127.308594 169.519531 123.039062 C 167.796875 122.195312 165.960938 121.78125 164.140625 121.753906 C 164.046875 121.746094 163.949219 121.738281 163.847656 121.738281 C 154.558594 121.738281 147 114.179688 147 104.886719 Z M 133.511719 166.929688 L 133.511719 168.472656 C 127.734375 166.683594 123.527344 161.292969 123.527344 154.933594 C 123.527344 151.148438 125 147.589844 127.675781 144.914062 C 129.332031 143.257812 131.332031 142.058594 133.511719 141.390625 Z M 128.898438 134.179688 L 128.898438 105.449219 C 128.898438 99.226562 133 93.949219 138.640625 92.167969 L 138.640625 104.886719 C 138.640625 114.945312 144.558594 123.640625 153.089844 127.6875 C 149.941406 130.773438 144.664062 132.402344 137.691406 132.402344 C 134.621094 132.402344 131.644531 133.015625 128.898438 134.179688 Z M 141.871094 166.929688 L 141.871094 140.589844 C 152.378906 139.671875 157.910156 135.335938 160.753906 131.632812 C 161.910156 130.128906 164.050781 129.671875 165.839844 130.550781 C 175.027344 135.054688 194.15625 140.390625 233.355469 140.746094 L 233.355469 166.929688 C 233.355469 192.160156 212.835938 212.6875 187.613281 212.6875 C 162.390625 212.6875 141.871094 192.160156 141.871094 166.929688 Z M 207.6875 217.1875 L 207.6875 223.875 L 203.605469 239.285156 C 202.160156 240.570312 197.523438 243.828125 187.613281 243.828125 C 177.703125 243.828125 173.066406 240.570312 171.621094 239.285156 L 167.539062 223.875 L 167.539062 217.1875 C 173.75 219.675781 180.523438 221.050781 187.613281 221.050781 C 194.703125 221.050781 201.476562 219.675781 207.6875 217.1875 Z M 142.753906 253.0625 L 149.007812 247.808594 C 150.457031 246.59375 150.90625 244.558594 150.109375 242.84375 L 144.980469 231.800781 C 144.828125 231.472656 144.878906 231.179688 144.949219 230.996094 C 145.019531 230.808594 145.167969 230.554688 145.496094 230.40625 L 157.875 224.804688 C 158.242188 224.640625 158.554688 224.71875 158.753906 224.8125 C 158.953125 224.910156 159.214844 225.101562 159.316406 225.488281 L 178.480469 297.832031 Z M 187.613281 299.65625 L 174.519531 250.230469 C 177.871094 251.363281 182.175781 252.195312 187.613281 252.195312 C 193.050781 252.195312 197.355469 251.363281 200.707031 250.230469 Z M 231.835938 253.859375 L 196.746094 297.832031 L 215.910156 225.488281 C 216.011719 225.101562 216.273438 224.910156 216.472656 224.8125 C 216.585938 224.757812 216.738281 224.710938 216.921875 224.710938 C 217.050781 224.710938 217.195312 224.734375 217.351562 224.804688 L 229.726562 230.40625 C 230.058594 230.554688 230.207031 230.808594 230.277344 230.996094 C 230.347656 231.179688 230.398438 231.472656 230.246094 231.800781 L 225.113281 242.84375 C 224.320312 244.558594 224.769531 246.59375 226.21875 247.808594 L 231.691406 252.40625 C 232.128906 252.773438 232.191406 253.414062 231.835938 253.859375 Z M 263.308594 303.015625 C 263.308594 307.859375 259.371094 311.800781 254.527344 311.800781 C 249.6875 311.800781 245.746094 307.859375 245.746094 303.015625 C 245.746094 298.171875 249.6875 294.230469 254.527344 294.230469 C 259.371094 294.230469 263.308594 298.171875 263.308594 303.015625 Z M 263.308594 303.015625 " fill-opacity="1" fill-rule="nonzero"/></g></svg>