<svg xmlns="http://www.w3.org/2000/svg" xmlns:xlink="http://www.w3.org/1999/xlink" width="500" zoomAndPan="magnify" viewBox="0 0 375 374.999991" height="500" preserveAspectRatio="xMidYMid meet" version="1.0"><defs><clipPath id="809f3b6dad"><path d="M 235 180 L 244 180 L 244 188 L 235 188 Z M 235 180 " clip-rule="nonzero"/></clipPath><clipPath id="d33a450ed7"><path d="M 243.164062 183.765625 C 243.164062 184.257812 243.070312 184.730469 242.882812 185.1875 C 242.695312 185.640625 242.425781 186.042969 242.078125 186.390625 C 241.730469 186.738281 241.328125 187.007812 240.875 187.195312 C 240.417969 187.382812 239.945312 187.476562 239.453125 187.476562 C 238.960938 187.476562 238.488281 187.382812 238.03125 187.195312 C 237.578125 187.007812 237.175781 186.738281 236.828125 186.390625 C 236.480469 186.042969 236.210938 185.640625 236.023438 185.1875 C 235.835938 184.730469 235.742188 184.257812 235.742188 183.765625 C 235.742188 183.273438 235.835938 182.800781 236.023438 182.34375 C 236.210938 181.890625 236.480469 181.488281 236.828125 181.140625 C 237.175781 180.792969 237.578125 180.523438 238.03125 180.335938 C 238.488281 180.148438 238.960938 180.054688 239.453125 180.054688 C 239.945312 180.054688 240.417969 180.148438 240.875 180.335938 C 241.328125 180.523438 241.730469 180.792969 242.078125 181.140625 C 242.425781 181.488281 242.695312 181.890625 242.882812 182.34375 C 243.070312 182.800781 243.164062 183.273438 243.164062 183.765625 Z M 243.164062 183.765625 " clip-rule="nonzero"/></clipPath><clipPath id="39843c13ef"><path d="M 250 180 L 259 180 L 259 188 L 250 188 Z M 250 180 " clip-rule="nonzero"/></clipPath><clipPath id="90e11338a2"><path d="M 258.015625 183.765625 C 258.015625 184.257812 257.921875 184.730469 257.734375 185.1875 C 257.542969 185.640625 257.277344 186.042969 256.929688 186.390625 C 256.578125 186.738281 256.179688 187.007812 255.722656 187.195312 C 255.269531 187.382812 254.796875 187.476562 254.304688 187.476562 C 253.8125 187.476562 253.335938 187.382812 252.882812 187.195312 C 252.425781 187.007812 252.027344 186.738281 251.679688 186.390625 C 251.328125 186.042969 251.0625 185.640625 250.871094 185.1875 C 250.683594 184.730469 250.589844 184.257812 250.589844 183.765625 C 250.589844 183.273438 250.683594 182.800781 250.871094 182.34375 C 251.0625 181.890625 251.328125 181.488281 251.679688 181.140625 C 252.027344 180.792969 252.425781 180.523438 252.882812 180.335938 C 253.335938 180.148438 253.8125 180.054688 254.304688 180.054688 C 254.796875 180.054688 255.269531 180.148438 255.722656 180.335938 C 256.179688 180.523438 256.578125 180.792969 256.929688 181.140625 C 257.277344 181.488281 257.542969 181.890625 257.734375 182.34375 C 257.921875 182.800781 258.015625 183.273438 258.015625 183.765625 Z M 258.015625 183.765625 " clip-rule="nonzero"/></clipPath><clipPath id="ddccef9483"><path d="M 243 258 L 251 258 L 251 266 L 243 266 Z M 243 258 " clip-rule="nonzero"/></clipPath><clipPath id="4e5a9cb85f"><path d="M 250.589844 261.726562 C 250.589844 262.21875 250.496094 262.695312 250.308594 263.148438 C 250.121094 263.601562 249.851562 264.003906 249.503906 264.351562 C 249.15625 264.699219 248.753906 264.96875 248.296875 265.15625 C 247.84375 265.347656 247.371094 265.441406 246.878906 265.441406 C 246.386719 265.441406 245.910156 265.347656 245.457031 265.15625 C 245.003906 264.96875 244.601562 264.699219 244.253906 264.351562 C 243.90625 264.003906 243.636719 263.601562 243.449219 263.148438 C 243.257812 262.695312 243.164062 262.21875 243.164062 261.726562 C 243.164062 261.234375 243.257812 260.761719 243.449219 260.308594 C 243.636719 259.851562 243.90625 259.449219 244.253906 259.101562 C 244.601562 258.753906 245.003906 258.488281 245.457031 258.296875 C 245.910156 258.109375 246.386719 258.015625 246.878906 258.015625 C 247.371094 258.015625 247.84375 258.109375 248.296875 258.296875 C 248.753906 258.488281 249.15625 258.753906 249.503906 259.101562 C 249.851562 259.449219 250.121094 259.851562 250.308594 260.308594 C 250.496094 260.761719 250.589844 261.234375 250.589844 261.726562 Z M 250.589844 261.726562 " clip-rule="nonzero"/></clipPath><clipPath id="450551f9de"><path d="M 243 243 L 251 243 L 251 251 L 243 251 Z M 243 243 " clip-rule="nonzero"/></clipPath><clipPath id="221bf0315f"><path d="M 250.589844 246.878906 C 250.589844 247.371094 250.496094 247.84375 250.308594 248.296875 C 250.121094 248.753906 249.851562 249.15625 249.503906 249.503906 C 249.15625 249.851562 248.753906 250.121094 248.296875 250.308594 C 247.84375 250.496094 247.371094 250.589844 246.878906 250.589844 C 246.386719 250.589844 245.910156 250.496094 245.457031 250.308594 C 245.003906 250.121094 244.601562 249.851562 244.253906 249.503906 C 243.90625 249.15625 243.636719 248.753906 243.449219 248.296875 C 243.257812 247.84375 243.164062 247.371094 243.164062 246.878906 C 243.164062 246.386719 243.257812 245.910156 243.449219 245.457031 C 243.636719 245.003906 243.90625 244.601562 244.253906 244.253906 C 244.601562 243.90625 245.003906 243.636719 245.457031 243.449219 C 245.910156 243.257812 246.386719 243.164062 246.878906 243.164062 C 247.371094 243.164062 247.84375 243.257812 248.296875 243.449219 C 248.753906 243.636719 249.15625 243.90625 249.503906 244.253906 C 249.851562 244.601562 250.121094 245.003906 250.308594 245.457031 C 250.496094 245.910156 250.589844 246.386719 250.589844 246.878906 Z M 250.589844 246.878906 " clip-rule="nonzero"/></clipPath><clipPath id="0ec95526d1"><path d="M 76.101562 76.101562 L 298.851562 76.101562 L 298.851562 298.851562 L 76.101562 298.851562 Z M 76.101562 76.101562 " clip-rule="nonzero"/></clipPath><clipPath id="7f6938d23a"><path d="M 280.289062 128.078125 C 290.527344 128.078125 298.851562 119.75 298.851562 109.515625 L 298.851562 94.664062 C 298.851562 84.429688 290.527344 76.101562 280.289062 76.101562 L 213.464844 76.101562 C 203.230469 76.101562 194.902344 84.429688 194.902344 94.664062 L 194.902344 109.515625 C 194.902344 119.75 203.230469 128.078125 213.464844 128.078125 L 222.867188 128.078125 L 235.238281 142.929688 L 228.316406 142.929688 C 220.125 142.929688 213.464844 149.589844 213.464844 157.777344 L 213.464844 168.914062 C 213.464844 169.136719 213.515625 169.359375 213.523438 169.578125 C 209.179688 171.101562 206.039062 175.195312 206.039062 180.054688 C 206.039062 188.242188 212.699219 194.902344 220.890625 194.902344 L 221.1875 194.902344 C 222.234375 202.164062 226.269531 208.460938 232.027344 212.484375 L 232.027344 213.464844 L 228.316406 213.464844 C 213.984375 213.464844 202.328125 225.121094 202.328125 239.453125 L 202.328125 246.941406 C 201.144531 246.941406 199.957031 247.066406 198.804688 247.445312 L 192.355469 249.59375 L 185.964844 251.726562 L 181.667969 240.957031 C 177.707031 231.023438 168.230469 224.601562 157.53125 224.601562 L 150.351562 224.601562 L 150.351562 223.601562 C 155.734375 219.828125 159.648438 214.066406 160.96875 207.300781 C 168.039062 201.871094 172.628906 193.355469 172.628906 183.765625 L 172.628906 157.777344 C 172.628906 155.730469 170.964844 154.066406 168.914062 154.066406 L 130 154.066406 L 130 139.214844 L 141.136719 139.214844 C 151.375 139.214844 159.699219 130.886719 159.699219 120.652344 L 159.699219 105.804688 C 159.699219 95.566406 151.375 87.242188 141.136719 87.242188 L 96.589844 87.242188 C 86.351562 87.242188 78.027344 95.566406 78.027344 105.804688 L 78.027344 120.652344 C 78.027344 130.886719 86.351562 139.214844 96.589844 139.214844 L 105.988281 139.214844 L 119.4375 155.355469 C 107.261719 159.066406 98.378906 170.394531 98.378906 183.765625 C 98.378906 193.355469 102.964844 201.871094 110.039062 207.304688 C 111.355469 214.066406 115.265625 219.832031 120.652344 223.605469 L 120.652344 224.601562 L 116.941406 224.601562 C 103.753906 224.601562 92.855469 234.484375 91.195312 247.226562 C 82.617188 248.859375 76.101562 256.394531 76.101562 265.441406 L 76.101562 295.140625 C 76.101562 297.191406 77.765625 298.851562 79.816406 298.851562 C 81.863281 298.851562 83.527344 297.191406 83.527344 295.140625 L 83.527344 265.441406 C 83.527344 259.300781 88.523438 254.304688 94.664062 254.304688 L 131.789062 254.304688 C 137.929688 254.304688 142.929688 259.300781 142.929688 265.441406 L 142.929688 295.140625 C 142.929688 297.191406 144.589844 298.851562 146.640625 298.851562 C 148.691406 298.851562 150.351562 297.191406 150.351562 295.140625 L 150.351562 265.441406 C 150.351562 255.203125 142.027344 246.878906 131.789062 246.878906 L 98.753906 246.878906 C 100.480469 238.417969 107.976562 232.027344 116.941406 232.027344 L 121.179688 232.027344 C 122.839844 238.414062 128.605469 243.164062 135.503906 243.164062 C 142.402344 243.164062 148.167969 238.414062 149.824219 232.027344 L 157.53125 232.027344 C 165.175781 232.027344 171.941406 236.613281 174.777344 243.710938 L 180.367188 257.734375 C 180.945312 259.179688 182.335938 260.070312 183.816406 260.070312 C 184.207031 260.070312 184.601562 260.003906 184.992188 259.878906 L 191.3125 257.769531 L 193.921875 264.726562 L 181.234375 268.960938 C 179.46875 269.539062 177.542969 268.71875 176.738281 267.101562 L 168.53125 250.683594 C 167.757812 249.140625 166.03125 248.34375 164.351562 248.730469 C 162.675781 249.128906 161.492188 250.625 161.492188 252.347656 L 161.492188 295.140625 C 161.492188 297.191406 163.152344 298.851562 165.203125 298.851562 L 295.140625 298.851562 C 297.191406 298.851562 298.851562 297.191406 298.851562 295.140625 C 298.851562 293.089844 297.191406 291.429688 295.140625 291.429688 L 168.914062 291.429688 L 168.914062 284.003906 L 295.140625 284.003906 C 297.191406 284.003906 298.851562 282.339844 298.851562 280.289062 C 298.851562 278.242188 297.191406 276.578125 295.140625 276.578125 L 291.429688 276.578125 L 291.429688 239.453125 C 291.429688 225.121094 279.769531 213.464844 265.441406 213.464844 L 261.726562 213.464844 L 261.726562 212.484375 C 267.484375 208.457031 271.523438 202.160156 272.570312 194.902344 L 272.867188 194.902344 C 281.054688 194.902344 287.714844 188.242188 287.714844 180.054688 C 287.714844 175.195312 284.574219 171.101562 280.230469 169.578125 C 280.242188 169.359375 280.289062 169.136719 280.289062 168.914062 C 280.289062 154.585938 268.632812 142.929688 254.304688 142.929688 L 246.878906 142.929688 L 246.878906 128.078125 Z M 107.726562 131.789062 L 96.589844 131.789062 C 90.449219 131.789062 85.449219 126.792969 85.449219 120.652344 L 85.449219 105.804688 C 85.449219 99.664062 90.449219 94.664062 96.589844 94.664062 L 141.136719 94.664062 C 147.277344 94.664062 152.277344 99.664062 152.277344 105.804688 L 152.277344 120.652344 C 152.277344 126.792969 147.277344 131.789062 141.136719 131.789062 L 126.289062 131.789062 C 124.238281 131.789062 122.574219 133.453125 122.574219 135.503906 L 122.574219 147.523438 L 110.578125 133.125 C 109.871094 132.28125 108.824219 131.789062 107.726562 131.789062 Z M 105.804688 183.765625 C 105.804688 171.480469 115.792969 161.492188 128.078125 161.492188 L 165.203125 161.492188 L 165.203125 183.765625 C 165.203125 196.050781 155.210938 206.039062 142.929688 206.039062 L 128.078125 206.039062 C 115.792969 206.039062 105.804688 196.050781 105.804688 183.765625 Z M 128.078125 213.464844 L 142.929688 213.464844 C 145.746094 213.464844 148.460938 213.046875 151.046875 212.3125 C 147.722656 217.472656 141.972656 220.890625 135.503906 220.890625 C 129.03125 220.890625 123.285156 217.472656 119.957031 212.3125 C 122.546875 213.046875 125.261719 213.464844 128.078125 213.464844 Z M 135.503906 235.742188 C 131.40625 235.742188 128.078125 232.410156 128.078125 228.316406 L 128.078125 227.210938 C 130.4375 227.921875 132.929688 228.316406 135.503906 228.316406 C 138.074219 228.316406 140.566406 227.921875 142.929688 227.210938 L 142.929688 228.316406 C 142.929688 232.410156 139.597656 235.742188 135.503906 235.742188 Z M 213.464844 180.054688 C 213.464844 178.007812 215.132812 176.339844 217.179688 176.339844 L 220.890625 176.339844 L 220.890625 187.476562 C 216.796875 187.476562 213.464844 184.148438 213.464844 180.054688 Z M 239.453125 216.082031 C 241.804688 216.789062 244.296875 217.179688 246.878906 217.179688 C 249.457031 217.179688 251.949219 216.789062 254.304688 216.082031 L 254.304688 222.617188 L 246.878906 227.566406 L 239.453125 222.617188 Z M 201.152344 254.492188 C 202.164062 254.15625 203.230469 254.261719 204.15625 254.785156 C 205.082031 255.304688 205.71875 256.171875 205.953125 257.214844 C 206.359375 259.011719 205.074219 261.007812 203.089844 261.671875 L 200.96875 262.378906 L 198.359375 255.421875 Z M 170.089844 270.421875 C 172.523438 275.289062 178.351562 277.742188 183.574219 276.007812 L 199.921875 270.554688 L 202.328125 269.753906 L 202.328125 276.578125 L 168.914062 276.578125 L 168.914062 268.070312 Z M 265.441406 220.890625 C 265.699219 220.890625 265.945312 220.957031 266.207031 220.96875 L 267.214844 226.144531 C 268.15625 230.984375 266.804688 235.933594 263.613281 239.636719 C 258.34375 240.515625 254.304688 245.074219 254.304688 250.589844 C 254.304688 256.730469 259.300781 261.726562 265.441406 261.726562 C 271.582031 261.726562 276.578125 256.730469 276.578125 250.589844 C 276.578125 246.714844 274.585938 243.304688 271.570312 241.304688 C 274.535156 236.386719 275.628906 230.496094 274.5 224.722656 L 274.203125 223.1875 C 280.003906 226.332031 284.003906 232.402344 284.003906 239.453125 L 284.003906 276.578125 L 250.589844 276.578125 C 250.589844 274.527344 248.925781 272.867188 246.878906 272.867188 C 244.828125 272.867188 243.164062 274.527344 243.164062 276.578125 L 209.753906 276.578125 L 209.753906 266.097656 C 212.617188 263.414062 214.070312 259.445312 213.195312 255.578125 C 212.683594 253.296875 211.460938 251.257812 209.753906 249.730469 L 209.753906 239.453125 C 209.753906 233.289062 212.804688 227.859375 217.441406 224.480469 C 215.363281 229.859375 215.160156 235.757812 216.882812 241.300781 C 214.957031 243.164062 213.738281 245.601562 213.507812 248.296875 C 213.246094 251.257812 214.160156 254.148438 216.070312 256.425781 L 220.847656 262.113281 C 221.582031 262.988281 222.632812 263.4375 223.691406 263.4375 C 224.535156 263.4375 225.382812 263.152344 226.082031 262.570312 L 228.925781 260.183594 C 230.496094 258.867188 230.699219 256.523438 229.382812 254.953125 C 228.058594 253.382812 225.722656 253.175781 224.148438 254.496094 L 221.761719 251.652344 C 221.128906 250.890625 220.824219 249.929688 220.910156 248.941406 C 220.996094 247.953125 221.457031 247.058594 222.21875 246.421875 L 225.066406 244.035156 C 225.824219 243.398438 226.785156 243.085938 227.773438 243.179688 C 228.761719 243.265625 229.65625 243.730469 230.292969 244.492188 L 232.679688 247.339844 C 231.109375 248.65625 230.90625 250.996094 232.226562 252.570312 C 233.546875 254.144531 235.890625 254.347656 237.457031 253.027344 L 240.300781 250.636719 C 241.871094 249.320312 242.074219 246.976562 240.757812 245.40625 L 235.980469 239.71875 C 234.070312 237.441406 231.386719 236.042969 228.417969 235.78125 C 226.664062 235.632812 224.953125 235.9375 223.359375 236.566406 C 222.71875 232.570312 223.417969 228.449219 225.421875 224.835938 L 227.578125 220.964844 C 227.824219 220.953125 228.0625 220.890625 228.316406 220.890625 L 232.027344 220.890625 L 232.027344 224.601562 C 232.027344 225.84375 232.648438 227 233.679688 227.691406 L 244.816406 235.117188 C 245.441406 235.53125 246.160156 235.742188 246.878906 235.742188 C 247.59375 235.742188 248.316406 235.53125 248.9375 235.117188 L 260.074219 227.691406 C 261.109375 227 261.726562 225.84375 261.726562 224.601562 L 261.726562 220.890625 Z M 265.441406 246.878906 C 267.484375 246.878906 269.152344 248.542969 269.152344 250.589844 C 269.152344 252.636719 267.484375 254.304688 265.441406 254.304688 C 263.394531 254.304688 261.726562 252.636719 261.726562 250.589844 C 261.726562 248.542969 263.394531 246.878906 265.441406 246.878906 Z M 246.878906 209.753906 C 236.640625 209.753906 228.316406 201.425781 228.316406 191.191406 L 228.316406 176.058594 C 234.394531 175.132812 239.90625 171.960938 243.761719 167.121094 C 249.925781 172.296875 257.433594 175.425781 265.441406 176.167969 L 265.441406 191.191406 C 265.441406 201.425781 257.113281 209.753906 246.878906 209.753906 Z M 272.867188 187.476562 L 272.867188 176.339844 L 276.578125 176.339844 C 278.625 176.339844 280.289062 178.007812 280.289062 180.054688 C 280.289062 184.148438 276.960938 187.476562 272.867188 187.476562 Z M 272.867188 168.914062 L 269.152344 168.914062 C 260.566406 168.914062 252.5 165.574219 246.425781 159.5 L 245.789062 158.867188 C 245.003906 158.082031 243.917969 157.675781 242.796875 157.796875 C 241.691406 157.902344 240.691406 158.503906 240.078125 159.429688 L 238.828125 161.300781 C 235.652344 166.066406 230.332031 168.914062 224.601562 168.914062 L 220.890625 168.914062 L 220.890625 157.777344 C 220.890625 153.683594 224.21875 150.351562 228.316406 150.351562 L 254.304688 150.351562 C 264.539062 150.351562 272.867188 158.679688 272.867188 168.914062 Z M 224.601562 120.652344 L 213.464844 120.652344 C 207.324219 120.652344 202.328125 115.65625 202.328125 109.515625 L 202.328125 94.664062 C 202.328125 88.523438 207.324219 83.527344 213.464844 83.527344 L 280.289062 83.527344 C 286.429688 83.527344 291.429688 88.523438 291.429688 94.664062 L 291.429688 109.515625 C 291.429688 115.65625 286.429688 120.652344 280.289062 120.652344 L 243.164062 120.652344 C 241.117188 120.652344 239.453125 122.316406 239.453125 124.367188 L 239.453125 136.386719 L 227.453125 121.988281 C 226.75 121.144531 225.707031 120.652344 224.601562 120.652344 Z M 224.601562 120.652344 " clip-rule="nonzero"/></clipPath><clipPath id="50aefc0a20"><path d="M 94 102 L 114 102 L 114 110 L 94 110 Z M 94 102 " clip-rule="nonzero"/></clipPath><clipPath id="6b697ab653"><path d="M 98.378906 109.515625 L 109.515625 109.515625 C 111.566406 109.515625 113.226562 107.851562 113.226562 105.804688 C 113.226562 103.753906 111.566406 102.089844 109.515625 102.089844 L 98.378906 102.089844 C 96.328125 102.089844 94.664062 103.753906 94.664062 105.804688 C 94.664062 107.851562 96.328125 109.515625 98.378906 109.515625 Z M 98.378906 109.515625 " clip-rule="nonzero"/></clipPath><clipPath id="2a901282b4"><path d="M 120 102 L 143 102 L 143 110 L 120 110 Z M 120 102 " clip-rule="nonzero"/></clipPath><clipPath id="feedd4c573"><path d="M 124.367188 109.515625 L 139.214844 109.515625 C 141.265625 109.515625 142.929688 107.851562 142.929688 105.804688 C 142.929688 103.753906 141.265625 102.089844 139.214844 102.089844 L 124.367188 102.089844 C 122.316406 102.089844 120.652344 103.753906 120.652344 105.804688 C 120.652344 107.851562 122.316406 109.515625 124.367188 109.515625 Z M 124.367188 109.515625 " clip-rule="nonzero"/></clipPath><clipPath id="9fadad912c"><path d="M 94 116 L 132 116 L 132 125 L 94 125 Z M 94 116 " clip-rule="nonzero"/></clipPath><clipPath id="9d15503bbe"><path d="M 131.789062 120.652344 C 131.789062 118.605469 130.128906 116.941406 128.078125 116.941406 L 98.378906 116.941406 C 96.328125 116.941406 94.664062 118.605469 94.664062 120.652344 C 94.664062 122.703125 96.328125 124.367188 98.378906 124.367188 L 128.078125 124.367188 C 130.128906 124.367188 131.789062 122.703125 131.789062 120.652344 Z M 131.789062 120.652344 " clip-rule="nonzero"/></clipPath><clipPath id="2039327a03"><path d="M 213 90 L 233 90 L 233 99 L 213 99 Z M 213 90 " clip-rule="nonzero"/></clipPath><clipPath id="9e63e7907a"><path d="M 217.179688 98.378906 L 228.316406 98.378906 C 230.363281 98.378906 232.027344 96.714844 232.027344 94.664062 C 232.027344 92.617188 230.363281 90.953125 228.316406 90.953125 L 217.179688 90.953125 C 215.128906 90.953125 213.464844 92.617188 213.464844 94.664062 C 213.464844 96.714844 215.128906 98.378906 217.179688 98.378906 Z M 217.179688 98.378906 " clip-rule="nonzero"/></clipPath><clipPath id="ac7b576a38"><path d="M 239 90 L 259 90 L 259 99 L 239 99 Z M 239 90 " clip-rule="nonzero"/></clipPath><clipPath id="cbe996dae9"><path d="M 243.164062 98.378906 L 254.304688 98.378906 C 256.351562 98.378906 258.015625 96.714844 258.015625 94.664062 C 258.015625 92.617188 256.351562 90.953125 254.304688 90.953125 L 243.164062 90.953125 C 241.117188 90.953125 239.453125 92.617188 239.453125 94.664062 C 239.453125 96.714844 241.117188 98.378906 243.164062 98.378906 Z M 243.164062 98.378906 " clip-rule="nonzero"/></clipPath><clipPath id="9ad0f7b6a6"><path d="M 265 90 L 285 90 L 285 99 L 265 99 Z M 265 90 " clip-rule="nonzero"/></clipPath><clipPath id="48cb4e1493"><path d="M 269.152344 98.378906 L 280.289062 98.378906 C 282.339844 98.378906 284.003906 96.714844 284.003906 94.664062 C 284.003906 92.617188 282.339844 90.953125 280.289062 90.953125 L 269.152344 90.953125 C 267.105469 90.953125 265.441406 92.617188 265.441406 94.664062 C 265.441406 96.714844 267.105469 98.378906 269.152344 98.378906 Z M 269.152344 98.378906 " clip-rule="nonzero"/></clipPath><clipPath id="e881e997d5"><path d="M 213 105 L 247 105 L 247 114 L 213 114 Z M 213 105 " clip-rule="nonzero"/></clipPath><clipPath id="ef59f6ab1e"><path d="M 246.878906 109.515625 C 246.878906 107.464844 245.214844 105.804688 243.164062 105.804688 L 217.179688 105.804688 C 215.128906 105.804688 213.464844 107.464844 213.464844 109.515625 C 213.464844 111.566406 215.128906 113.226562 217.179688 113.226562 L 243.164062 113.226562 C 245.214844 113.226562 246.878906 111.566406 246.878906 109.515625 Z M 246.878906 109.515625 " clip-rule="nonzero"/></clipPath><clipPath id="b337b67963"><path d="M 254 105 L 273 105 L 273 114 L 254 114 Z M 254 105 " clip-rule="nonzero"/></clipPath><clipPath id="081c3d9c7b"><path d="M 269.152344 105.804688 L 258.015625 105.804688 C 255.964844 105.804688 254.304688 107.464844 254.304688 109.515625 C 254.304688 111.566406 255.964844 113.226562 258.015625 113.226562 L 269.152344 113.226562 C 271.203125 113.226562 272.867188 111.566406 272.867188 109.515625 C 272.867188 107.464844 271.203125 105.804688 269.152344 105.804688 Z M 269.152344 105.804688 " clip-rule="nonzero"/></clipPath></defs><g clip-path="url(#809f3b6dad)"><g clip-path="url(#d33a450ed7)"><path fill="#4dc0b5" d="M 235.742188 180.054688 L 235.742188 187.476562 L 243.164062 187.476562 L 243.164062 180.054688 Z M 235.742188 180.054688 " fill-opacity="1" fill-rule="nonzero"/></g></g><g clip-path="url(#39843c13ef)"><g clip-path="url(#90e11338a2)"><path fill="#4dc0b5" d="M 250.589844 180.054688 L 250.589844 187.476562 L 258.015625 187.476562 L 258.015625 180.054688 Z M 250.589844 180.054688 " fill-opacity="1" fill-rule="nonzero"/></g></g><g clip-path="url(#ddccef9483)"><g clip-path="url(#4e5a9cb85f)"><path fill="#4dc0b5" d="M 243.164062 258.015625 L 243.164062 265.441406 L 250.589844 265.441406 L 250.589844 258.015625 Z M 243.164062 258.015625 " fill-opacity="1" fill-rule="nonzero"/></g></g><g clip-path="url(#450551f9de)"><g clip-path="url(#221bf0315f)"><path fill="#4dc0b5" d="M 243.164062 243.164062 L 243.164062 250.589844 L 250.589844 250.589844 L 250.589844 243.164062 Z M 243.164062 243.164062 " fill-opacity="1" fill-rule="nonzero"/></g></g><g clip-path="url(#0ec95526d1)"><g clip-path="url(#7f6938d23a)"><path fill="#4dc0b5" d="M 76.101562 76.101562 L 76.101562 298.851562 L 298.851562 298.851562 L 298.851562 76.101562 Z M 76.101562 76.101562 " fill-opacity="1" fill-rule="nonzero"/></g></g><g clip-path="url(#50aefc0a20)"><g clip-path="url(#6b697ab653)"><path fill="#4dc0b5" d="M 94.664062 102.089844 L 94.664062 109.515625 L 113.226562 109.515625 L 113.226562 102.089844 Z M 94.664062 102.089844 " fill-opacity="1" fill-rule="nonzero"/></g></g><g clip-path="url(#2a901282b4)"><g clip-path="url(#feedd4c573)"><path fill="#4dc0b5" d="M 120.652344 102.089844 L 120.652344 109.515625 L 142.929688 109.515625 L 142.929688 102.089844 Z M 120.652344 102.089844 " fill-opacity="1" fill-rule="nonzero"/></g></g><g clip-path="url(#9fadad912c)"><g clip-path="url(#9d15503bbe)"><path fill="#4dc0b5" d="M 94.664062 116.941406 L 94.664062 124.367188 L 131.789062 124.367188 L 131.789062 116.941406 Z M 94.664062 116.941406 " fill-opacity="1" fill-rule="nonzero"/></g></g><g clip-path="url(#2039327a03)"><g clip-path="url(#9e63e7907a)"><path fill="#4dc0b5" d="M 213.464844 90.953125 L 213.464844 98.378906 L 232.027344 98.378906 L 232.027344 90.953125 Z M 213.464844 90.953125 " fill-opacity="1" fill-rule="nonzero"/></g></g><g clip-path="url(#ac7b576a38)"><g clip-path="url(#cbe996dae9)"><path fill="#4dc0b5" d="M 239.453125 90.953125 L 239.453125 98.378906 L 258.015625 98.378906 L 258.015625 90.953125 Z M 239.453125 90.953125 " fill-opacity="1" fill-rule="nonzero"/></g></g><g clip-path="url(#9ad0f7b6a6)"><g clip-path="url(#48cb4e1493)"><path fill="#4dc0b5" d="M 265.441406 90.953125 L 265.441406 98.378906 L 284.003906 98.378906 L 284.003906 90.953125 Z M 265.441406 90.953125 " fill-opacity="1" fill-rule="nonzero"/></g></g><g clip-path="url(#e881e997d5)"><g clip-path="url(#ef59f6ab1e)"><path fill="#4dc0b5" d="M 213.464844 105.804688 L 213.464844 113.226562 L 246.878906 113.226562 L 246.878906 105.804688 Z M 213.464844 105.804688 " fill-opacity="1" fill-rule="nonzero"/></g></g><g clip-path="url(#b337b67963)"><g clip-path="url(#081c3d9c7b)"><path fill="#4dc0b5" d="M 254.304688 105.804688 L 254.304688 113.226562 L 272.867188 113.226562 L 272.867188 105.804688 Z M 254.304688 105.804688 " fill-opacity="1" fill-rule="nonzero"/></g></g></svg>